<?xml version="1.0" encoding="utf-8"?>
<!-- Generator: Adobe Illustrator 16.0.0, SVG Export Plug-In . SVG Version: 6.00 Build 0)  -->
<!DOCTYPE svg PUBLIC "-//W3C//DTD SVG 1.1//EN" "http://www.w3.org/Graphics/SVG/1.1/DTD/svg11.dtd">
<svg version="1.1" id="Layer_1" xmlns="http://www.w3.org/2000/svg" xmlns:xlink="http://www.w3.org/1999/xlink" x="0px" y="0px"
	 width="100px" height="100px" viewBox="0 0 100 100" enable-background="new 0 0 100 100" xml:space="preserve">
<g>
	<polygon fill="#035BA9" points="86.867,57.948 87.026,29.095 47.709,9.117 47.709,93.146 94.001,93.146 94.001,59.853 	"/>
	<polygon fill="#FFFFFF" points="62.326,29.056 52.643,27.477 52.643,19.274 62.326,21.098 	"/>
	<polygon fill="#FFFFFF" points="62.326,39.71 52.643,38.616 52.643,30.411 62.326,32.235 	"/>
	<polygon fill="#FFFFFF" points="62.326,49.755 52.643,49.574 52.643,41.37 62.326,42.278 	"/>
	<polygon fill="#FFFFFF" points="89.267,70.548 79.584,68.971 79.584,60.767 89.267,62.588 	"/>
	<polygon fill="#FFFFFF" points="89.267,81.2 79.584,80.105 79.584,71.905 89.267,73.728 	"/>
	<polygon fill="#FFFFFF" points="89.267,91.245 79.584,91.063 79.584,82.859 89.267,83.771 	"/>
	<g>
		<polygon fill="#A6A8AB" points="35.113,13.658 30.821,15.543 30.821,93.146 35.113,93.146 		"/>
		<polygon fill="#A6A8AB" points="18.75,22.003 14.465,23.887 14.465,93.146 18.75,93.146 		"/>
	</g>
	<g>
		<polygon fill="#035BA9" points="43.688,9.117 39.399,11.003 39.399,93.146 43.688,93.146 		"/>
		<polygon fill="#035BA9" points="26.766,17.848 22.477,19.734 22.477,93.146 26.766,93.146 		"/>
		<polygon fill="#035BA9" points="10.3,25.951 6.011,27.837 6.011,93.146 10.3,93.146 		"/>
	</g>
</g>
</svg>
